<?xml version="1.0" encoding="utf-8"?>
<!-- Generator: Adobe Illustrator 15.1.0, SVG Export Plug-In . SVG Version: 6.00 Build 0)  -->
<!DOCTYPE svg PUBLIC "-//W3C//DTD SVG 1.1//EN" "http://www.w3.org/Graphics/SVG/1.1/DTD/svg11.dtd">
<svg version="1.1" id="Layer_1" xmlns="http://www.w3.org/2000/svg" xmlns:xlink="http://www.w3.org/1999/xlink" x="0px" y="0px"
	 width="200px" height="200px" viewBox="0 0 200 200" enable-background="new 0 0 200 200" xml:space="preserve">
<polygon points="0,0.994 164.199,0.994 82.101,83.648 0,166.305 "/>
<path d="M20.237,146.068l-0.002,29.283l33.62-33.619l42.949,42.949c16.421,16.424,43.047,16.424,59.467,0l28.414-28.414
	c16.42-16.422,16.42-43.045,0-59.466l-42.952-42.949l33.62-33.618H146.07L166.304,0L18.833,18.834L0,166.305L20.237,146.068z"/>
<path fill="#FFFFFF" d="M120.764,164.42c0.422-0.418,0.805-0.908,1.163-1.449c18.961-23.896,34.108-36.141,39.906-40.393
	c0.996-0.537,1.896-1.121,2.587-1.814c6.945-6.943,7.648-17.5,1.572-23.574c-6.075-6.076-16.627-5.373-23.574,1.571
	c-3.012,3.014-6.491,8.352-8.975,13.924l0,0c-5.48,13.746-20.759,20.758-20.759,20.758v0.002c-5.57,2.48-10.912,5.963-13.923,8.973
	c-6.941,6.943-7.646,17.498-1.572,23.574C103.266,172.068,113.824,171.361,120.764,164.42z"/>
<circle cx="151.604" cy="112.949" r="6.483"/>
<circle cx="112.084" cy="152.471" r="6.483"/>
<rect x="104.871" y="153.705" transform="matrix(-0.515 0.8572 -0.8572 -0.515 310.3119 137.4863)" fill="#FFFFFF" width="22.778" height="5.655"/>
<rect x="142.062" y="114.579" transform="matrix(-0.8537 0.5208 -0.5208 -0.8537 345.5984 137.709)" fill="#FFFFFF" width="22.781" height="5.656"/>
<polygon fill="#FFFFFF" points="49.511,47.772 114.688,47.772 82.101,80.361 49.511,112.949 "/>
</svg>
